<?xml version="1.0" encoding="UTF-8"?>
<svg xmlns="http://www.w3.org/2000/svg" id="Layer_1" data-name="Layer 1" viewBox="0 0 24 24">
  <path d="m21.5,18c-.213,0-.426-.081-.589-.244l-.69-.69c-.787-.787-1.221-1.833-1.221-2.947V2.5c0-1.379,1.121-2.5,2.5-2.5s2.5,1.121,2.5,2.5v11.619c0,1.113-.434,2.16-1.221,2.947l-.69.69c-.163.163-.376.244-.589.244ZM13,0H4C1.791,0,0,1.791,0,4v17.357c0,1.308.941,2.499,2.242,2.63,1.496.15,2.758-1.021,2.758-2.487v-.5c0-1.657,1.343-3,3-3h9V4c0-2.209-1.791-4-4-4Zm-3.273,11.207l-2.179,2.179c-.409.409-.946.613-1.483.613s-1.074-.204-1.483-.613l-1.288-1.289c-.391-.391-.391-1.024,0-1.414.391-.391,1.023-.391,1.414,0l1.288,1.289c.033.033.105.033.139,0l2.179-2.179c.391-.391,1.023-.391,1.414,0s.391,1.023,0,1.414Zm0-6l-2.179,2.179c-.409.409-.946.613-1.483.613s-1.074-.204-1.483-.613l-1.288-1.289c-.391-.391-.391-1.024,0-1.414.391-.391,1.023-.391,1.414,0l1.288,1.289c.033.033.105.033.139,0l2.179-2.179c.391-.391,1.023-.391,1.414,0s.391,1.023,0,1.414Zm7.273,18.793H6.24c.48-.716.76-1.576.76-2.5v-.5c0-.552.448-1,1-1h11c.552,0,1,.448,1,1,0,1.657-1.343,3-3,3Z"/>
</svg>
