<!DOCTYPE svg PUBLIC "-//W3C//DTD SVG 1.1//EN" "http://www.w3.org/Graphics/SVG/1.1/DTD/svg11.dtd">
<!-- Uploaded to: SVG Repo, www.svgrepo.com, Transformed by: SVG Repo Mixer Tools -->
<svg version="1.1" id="_x32_" xmlns="http://www.w3.org/2000/svg" xmlns:xlink="http://www.w3.org/1999/xlink" width="800px" height="800px" viewBox="0 0 512 512" xml:space="preserve" fill="#000000" stroke="#000000">
<g id="SVGRepo_bgCarrier" stroke-width="0"/>
<g id="SVGRepo_tracerCarrier" stroke-linecap="round" stroke-linejoin="round"/>
<g id="SVGRepo_iconCarrier"> <style type="text/css">  .st0{fill:#ffffff;}  </style> <g> <path class="st0" d="M452.648,6.001C399.227-8.546,323.977-2.733,277.836,93.282c-4.844,11.656-11.188,16.406-11.188,16.406 c-2.609,3.844-6.516,6.063-10.656,6.063c-4.125,0-8.031-2.219-10.641-6.063c0,0-6.344-4.75-11.203-16.406 C188.023-2.733,112.758-8.546,59.352,6.001c0,0-6.609,72.219,53.406,110.563c72.828,46.563,121.391,11.656,121.391,46.563 c0,23.297,0,24.766,0,24.766h21.844h21.844c0,0,0-1.469,0-24.766c0-34.906,48.578,0,121.391-46.563 C459.258,78.22,452.648,6.001,452.648,6.001z"/> <rect x="63.992" y="212.298" class="st0" width="384" height="80"/> <polygon class="st0" points="255.992,327.782 108.633,327.782 140.211,512.001 255.992,512.001 371.773,512.001 403.352,327.782 "/> </g> </g>
</svg>